<svg width="1280" height="216" viewBox="0 0 1280 216" fill="none" xmlns="http://www.w3.org/2000/svg">
<mask id="mask0_1_194" style="mask-type:alpha" maskUnits="userSpaceOnUse" x="0" y="0" width="1280" height="216">
<rect width="1280" height="216" fill="#0F2E23"/>
</mask>
<g mask="url(#mask0_1_194)">
<rect width="1280" height="216" fill="#0B251C"/>
<path d="M227.774 232.076C235.792 230.436 242.088 226.161 249.368 222.61C257.206 218.786 264.658 214.116 271.922 209.304C279.589 204.225 287.304 199.229 294.868 193.992C302.31 188.84 308.031 181.279 314.193 174.754C322.605 165.848 332.995 151.605 332.995 138.633C332.995 127.547 327.59 122.98 317.116 119.613C310.721 117.558 300.277 123.368 298.62 129.996C295.675 141.776 300.602 154.072 311.009 160.576C318.061 164.984 326.537 167.123 334.74 167.862C347.879 169.044 357.527 167.119 369.552 161.754C399.681 148.312 426.636 130.478 447.639 104.694C459.397 90.2597 473.118 72.7277 473.552 53.2177C473.779 42.9785 464.316 34.9829 454.663 34.9829C445.502 34.9829 437.431 38.2748 437.431 47.9829C437.431 53.7535 437.953 56.8425 441.357 61.6808C446.191 68.5493 457.249 72.7753 465.089 74.8552C483.352 79.7007 508.419 75.5243 523.458 64.0365C537.474 53.3298 547.284 38.4656 556.35 23.5971C563.553 11.7844 573.276 -1.79865 573.276 -16.0571" stroke="#B7EB38" stroke-width="6" stroke-linecap="round"/>
</g>
</svg>
