<svg width="50" height="50" viewBox="0 0 50 50" fill="none" xmlns="http://www.w3.org/2000/svg">
<circle cx="25" cy="25" r="25" fill="#B7EB38"/>
<path d="M29.7 31.98H20.3C19.88 31.98 19.41 31.65 19.27 31.25L15.13 19.67C14.54 18.01 15.23 17.5 16.65 18.52L20.55 21.31C21.2 21.76 21.94 21.53 22.22 20.8L23.98 16.11C24.54 14.61 25.47 14.61 26.03 16.11L27.79 20.8C28.07 21.53 28.81 21.76 29.45 21.31L33.11 18.7C34.67 17.58 35.42 18.15 34.78 19.96L30.74 31.27C30.59 31.65 30.12 31.98 29.7 31.98Z" stroke="#0B251C" stroke-width="2" stroke-linecap="round" stroke-linejoin="round"/>
<path d="M19.5 35H30.5" stroke="#0B251C" stroke-width="2" stroke-linecap="round" stroke-linejoin="round"/>
<path d="M22.5 27H27.5" stroke="#0B251C" stroke-width="2" stroke-linecap="round" stroke-linejoin="round"/>
</svg>
