<svg width="148" height="28" viewBox="0 0 148 28" fill="none" xmlns="http://www.w3.org/2000/svg">
<path d="M13.9998 0L17.143 9.67376H27.3146L19.0856 15.6525L22.2288 25.3262L13.9998 19.3475L5.77082 25.3262L8.91402 15.6525L0.685025 9.67376H10.8566L13.9998 0Z" fill="#FF9736"/>
<path d="M43.9998 0L47.143 9.67376H57.3146L49.0856 15.6525L52.2288 25.3262L43.9998 19.3475L35.7708 25.3262L38.914 15.6525L30.685 9.67376H40.8566L43.9998 0Z" fill="#FF9736"/>
<path d="M73.9998 0L77.143 9.67376H87.3146L79.0856 15.6525L82.2288 25.3262L73.9998 19.3475L65.7708 25.3262L68.914 15.6525L60.685 9.67376H70.8566L73.9998 0Z" fill="#FF9736"/>
<path d="M104 0L107.143 9.67376H117.315L109.086 15.6525L112.229 25.3262L104 19.3475L95.7708 25.3262L98.914 15.6525L90.685 9.67376H100.857L104 0Z" fill="#FF9736"/>
<path d="M134 0L137.143 9.67376H147.315L139.086 15.6525L142.229 25.3262L134 19.3475L125.771 25.3262L128.914 15.6525L120.685 9.67376H130.857L134 0Z" fill="#FF9736"/>
</svg>
