<svg width="50" height="50" viewBox="0 0 50 50" fill="none" xmlns="http://www.w3.org/2000/svg">
<circle cx="25" cy="25" r="25" fill="#B7EB38"/>
<path d="M23.49 15.2301L18.5 17.1001C17.35 17.5301 16.41 18.89 16.41 20.12V27.55C16.41 28.73 17.19 30.28 18.14 30.99L22.44 34.2001C23.85 35.2601 26.17 35.2601 27.58 34.2001L31.88 30.99C32.83 30.28 33.61 28.73 33.61 27.55V20.12C33.61 18.89 32.67 17.5301 31.52 17.1001L26.53 15.2301C25.68 14.9201 24.32 14.9201 23.49 15.2301Z" stroke="#0B251C" stroke-width="2" stroke-linecap="round" stroke-linejoin="round"/>
<path d="M25.0001 23.9199C24.9601 23.9199 24.9101 23.9199 24.8701 23.9199C23.9301 23.8899 23.1801 23.1099 23.1801 22.1599C23.1801 21.1899 23.9701 20.3999 24.9401 20.3999C25.9101 20.3999 26.7001 21.1899 26.7001 22.1599C26.6901 23.1199 25.9401 23.8899 25.0001 23.9199Z" stroke="#0B251C" stroke-width="2" stroke-linecap="round" stroke-linejoin="round"/>
<path d="M23.01 26.7199C22.05 27.3599 22.05 28.4099 23.01 29.0498C24.1 29.7799 25.89 29.7799 26.98 29.0498C27.94 28.4099 27.94 27.3599 26.98 26.7199C25.9 25.9899 24.11 25.9899 23.01 26.7199Z" stroke="#0B251C" stroke-width="2" stroke-linecap="round" stroke-linejoin="round"/>
</svg>
